<svg xmlns="http://www.w3.org/2000/svg" version="1.1" xmlns:xlink="http://www.w3.org/1999/xlink" width="1500" height="1500" viewBox="0 0 1500 1500"><rect width="1500" height="1500" x="0" y="0" id="background" stroke="transparent" fill="#ade8f4"></rect><svg xml:space="preserve" width="1000" height="1000" data-version="2" data-id="lg_skl1gr4tg4x46gV6Wi" viewBox="0 0 578 168" x="250" y="250"><rect width="100%" height="100%" fill="transparent"></rect><path fill="#fff" d="M112.745 163.984v-71.3h18.14q8.73 0 13.82 1.75 5.09 1.74 7.57 4.46 2.47 2.72 3.25 5.72.77 3.01.77 5.63 0 2.81-.82 5.87-.83 3.05-2.77 5.62-1.94 2.57-5.33 4.13 7.27 1.84 10.33 6.35 3.06 4.51 3.06 10.04 0 3.78-.88 7.66-.87 3.88-3.64 7.04-2.76 3.15-8.29 5.09-5.53 1.94-14.84 1.94Zm10.67-41.03h9.22q5.04 0 7.76-1.7 2.71-1.7 3.83-4.41 1.11-2.72 1.11-5.73 0-2.52-1.11-4.6-1.12-2.09-3.98-3.35-2.86-1.26-8.1-1.26h-8.73Zm0 31.91h11.16q4.94 0 7.9-1.16 2.96-1.17 4.51-3.01 1.55-1.84 2.04-4.03.48-2.18.48-4.31 0-5.05-3.39-7.91-3.4-2.86-10.67-2.86h-12.03Z"></path><rect width="48.02" height="71.3" x="-24.01" y="-35.65" fill="none" rx="0" ry="0" transform="translate(137.25 128.83)"></rect><path fill="#fff" d="M192.285 92.594h1.07l34.34 71.39h-12.52l-6.11-13.97h-32.69l-6.11 13.97h-12.12Zm.49 20.66-4.27 9.7-7.76 17.26h24.05l-7.66-17.17-4.17-9.79Z"></path><rect width="69.55" height="71.39" x="-34.77" y="-35.7" fill="none" rx="0" ry="0" transform="translate(193.42 128.79)"></rect><path fill="#fff" d="M229.045 163.984v-71.3h10.67v31.82l24.45-31.82h13l-24.55 31.33 28.04 39.97h-13.29l-21.83-31.92-5.82 7.18v24.74Z"></path><rect width="51.61" height="71.3" x="-25.8" y="-35.65" fill="none" rx="0" ry="0" transform="translate(255.35 128.83)"></rect><path fill="#fff" d="M284.245 163.984v-71.3h31.23v9.51h-20.47v19.69h16.49v9.7h-16.49v22.79h23.67v9.61Z"></path><rect width="34.43" height="71.3" x="-17.21" y="-35.65" fill="none" rx="0" ry="0" transform="translate(301.96 128.83)"></rect><path fill="#fff" d="M351.755 92.594h1.07l34.33 71.39h-12.51l-6.11-13.97h-32.69l-6.11 13.97h-12.13Zm.48 20.66-4.26 9.7-7.76 17.26h24.05l-7.66-17.17-4.17-9.79Z"></path><rect width="69.55" height="71.39" x="-34.77" y="-35.7" fill="none" rx="0" ry="0" transform="translate(352.88 128.79)"></rect><path fill="#fff" d="m422.075 92.294 19.5 46.27 17.07-45.88h11.55l-27.75 71.3h-1.35l-19.4-46.17-19.31 46.07h-1.36l-27.74-71.2h11.55l17.07 45.88 19.59-46.27Z"></path><rect width="96.91" height="71.69" x="-48.45" y="-35.84" fill="none" rx="0" ry="0" transform="translate(422.24 128.64)"></rect><path fill="#fff" d="M490.565 92.594h1.06l34.34 71.39h-12.51l-6.11-13.97h-32.69l-6.11 13.97h-12.13Zm.48 20.66-4.27 9.7-7.76 17.26h24.06l-7.66-17.17-4.18-9.79Z"></path><rect width="69.55" height="71.39" x="-34.77" y="-35.7" fill="none" rx="0" ry="0" transform="translate(491.69 128.79)"></rect><path fill="#fff" d="M535.955 163.984v-33.27l-24.73-38.03h12.99l17.17 28.13 17.17-28.13h12.9l-24.63 38.22v33.08Z"></path><rect width="60.23" height="71.3" x="-30.11" y="-35.65" fill="none" rx="0" ry="0" transform="translate(541.84 128.83)"></rect><path fill="#0096c7" stroke="#fff" stroke-width="6" d="M16.132 100.334h60.504m17.815-25.761V12.275M78.798 83.414 35.314 39.93m48.19 74.075L40.02 157.489M153.97 37.37l-44.625 44.624" vector-effect="non-scaling-stroke"></path></svg></svg>